{"asset":{"version":"2.0","generator":"babylon.js glTF exporter for 3ds max 2018 v1.2.23","copyright":"2017 (c) BabylonJS"},"scene":0,"scenes":[{"nodes":[0,1,2,3,4,5],"extensions":{}}],"nodes":[{"mesh":0,"translation":[0.0,-11.5325136,8.694422],"rotation":[0.7071068,0.0,0.0,0.7071067],"scale":[1.0,1.0,1.0],"name":"Box014"},{"mesh":1,"translation":[0.0,5.98248148,8.623285],"rotation":[0.7071068,0.0,0.0,0.7071067],"scale":[1.0,1.0,1.0],"name":"Box015"},{"mesh":2,"translation":[0.0,-3.93879747,-0.346711457],"rotation":[-0.353553355,-0.853553355,0.146446526,-0.353553563],"scale":[0.9999999,0.9999999,0.9999996],"name":"Box016"},{"mesh":3,"translation":[0.0,-9.44,-0.7],"rotation":[0.0,0.382683426,0.0,0.923879564],"scale":[1.0,1.0,1.0],"name":"Box017"},{"mesh":4,"translation":[0.0,-11.3851681,9.614782],"rotation":[0.7071068,0.0,0.0,0.7071067],"scale":[1.0,1.0,1.0],"name":"TextPlus008"},{"mesh":5,"translation":[0.0,5.943633,9.543648],"rotation":[0.7071068,0.0,0.0,0.7071067],"scale":[1.0,1.0,1.0],"name":"TextPlus009"}],"meshes":[{"primitives":[{"attributes":{"POSITION":1,"NORMAL":2,"TEXCOORD_0":3},"indices":0,"mode":4,"material":0}],"name":"Box014"},{"primitives":[{"attributes":{"POSITION":5,"NORMAL":6,"TEXCOORD_0":7},"indices":4,"mode":4,"material":0}],"name":"Box015"},{"primitives":[{"attributes":{"POSITION":9,"NORMAL":10,"TEXCOORD_0":11},"indices":8,"mode":4,"material":1}],"name":"Box016"},{"primitives":[{"attributes":{"POSITION":13,"NORMAL":14,"TEXCOORD_0":15},"indices":12,"mode":4,"material":2}],"name":"Box017"},{"primitives":[{"attributes":{"POSITION":17,"NORMAL":18,"TEXCOORD_0":19},"indices":16,"mode":4,"material":3}],"name":"TextPlus008"},{"primitives":[{"attributes":{"POSITION":21,"NORMAL":22,"TEXCOORD_0":23},"indices":20,"mode":4,"material":3}],"name":"TextPlus009"}],"accessors":[{"bufferView":0,"componentType":5123,"count":648,"type":"SCALAR","name":"accessorIndices"},{"bufferView":1,"componentType":5126,"count":648,"max":[43.5804062,0.170359612,3.037671],"min":[-43.5804062,-0.170361519,-3.037672],"type":"VEC3","name":"accessorPositions"},{"bufferView":1,"byteOffset":7776,"componentType":5126,"count":648,"type":"VEC3","name":"accessorNormals"},{"bufferView":2,"componentType":5126,"count":648,"type":"VEC2","name":"accessorUVs"},{"bufferView":0,"byteOffset":1296,"componentType":5123,"count":3156,"type":"SCALAR","name":"accessorIndices"},{"bufferView":1,"byteOffset":15552,"componentType":5126,"count":3156,"max":[32.0,0.170360565,9.0],"min":[-32.0,-0.170361519,-9.0],"type":"VEC3","name":"accessorPositions"},{"bufferView":1,"byteOffset":53424,"componentType":5126,"count":3156,"type":"VEC3","name":"accessorNormals"},{"bufferView":2,"byteOffset":5184,"componentType":5126,"count":3156,"type":"VEC2","name":"accessorUVs"},{"bufferView":0,"byteOffset":7608,"componentType":5123,"count":63096,"type":"SCALAR","name":"accessorIndices"},{"bufferView":1,"byteOffset":91296,"componentType":5126,"count":63096,"max":[22.4655457,31.7064857,22.4470253],"min":[-22.4580479,-31.7046127,-22.454567],"type":"VEC3","name":"accessorPositions"},{"bufferView":1,"byteOffset":848448,"componentType":5126,"count":63096,"type":"VEC3","name":"accessorNormals"},{"bufferView":2,"byteOffset":30432,"componentType":5126,"count":63096,"type":"VEC2","name":"accessorUVs"},{"bufferView":0,"byteOffset":133800,"componentType":5123,"count":24876,"type":"SCALAR","name":"accessorIndices"},{"bufferView":1,"byteOffset":1605600,"componentType":5126,"count":24876,"max":[7.54048,39.2633324,7.669595],"min":[-7.597612,-27.9920387,-7.6039834],"type":"VEC3","name":"accessorPositions"},{"bufferView":1,"byteOffset":1904112,"componentType":5126,"count":24876,"type":"VEC3","name":"accessorNormals"},{"bufferView":2,"byteOffset":535200,"componentType":5126,"count":24876,"type":"VEC2","name":"accessorUVs"},{"bufferView":0,"byteOffset":183552,"componentType":5123,"count":2652,"type":"SCALAR","name":"accessorIndices"},{"bufferView":1,"byteOffset":2202624,"componentType":5126,"count":2652,"max":[32.76821,0.750000954,1.97599983],"min":[-32.76821,-0.75,-1.97599983],"type":"VEC3","name":"accessorPositions"},{"bufferView":1,"byteOffset":2234448,"componentType":5126,"count":2652,"type":"VEC3","name":"accessorNormals"},{"bufferView":2,"byteOffset":734208,"componentType":5126,"count":2652,"type":"VEC2","name":"accessorUVs"},{"bufferView":0,"byteOffset":188856,"componentType":5123,"count":1500,"type":"SCALAR","name":"accessorIndices"},{"bufferView":1,"byteOffset":2266272,"componentType":5126,"count":1500,"max":[26.7620964,0.75,4.1881876],"min":[-26.7620964,-0.750000954,-4.188188],"type":"VEC3","name":"accessorPositions"},{"bufferView":1,"byteOffset":2284272,"componentType":5126,"count":1500,"type":"VEC3","name":"accessorNormals"},{"bufferView":2,"byteOffset":755424,"componentType":5126,"count":1500,"type":"VEC2","name":"accessorUVs"}],"bufferViews":[{"buffer":0,"byteLength":191856,"name":"bufferViewScalar"},{"buffer":0,"byteOffset":191856,"byteLength":2302272,"byteStride":12,"name":"bufferViewFloatVec3"},{"buffer":0,"byteOffset":2494128,"byteLength":767424,"byteStride":8,"name":"bufferViewFloatVec2"}],"buffers":[{"uri":"logo3d.bin","byteLength":3261552}],"materials":[{"pbrMetallicRoughness":{"baseColorFactor":[0.914,0.914,0.92,1.0],"metallicFactor":1.0,"roughnessFactor":0.51},"emissiveFactor":[0.0,0.0,0.0],"alphaMode":"OPAQUE","name":"mate aluminio"},{"pbrMetallicRoughness":{"baseColorFactor":[0.914,0.914,0.92,1.0],"metallicFactor":1.0,"roughnessFactor":0.29},"emissiveFactor":[0.0,0.0,0.0],"alphaMode":"OPAQUE","name":"alimunio polished"},{"pbrMetallicRoughness":{"baseColorFactor":[1.0,1.0,1.0,1.0],"metallicFactor":1.0,"roughnessFactor":0.200557277},"emissiveFactor":[0.0,0.0,0.0],"alphaMode":"OPAQUE","name":"cepillado metal"},{"pbrMetallicRoughness":{"baseColorFactor":[0.933,0.774,0.374,1.0],"metallicFactor":1.0,"roughnessFactor":0.08},"emissiveFactor":[0.0,0.0,0.0],"alphaMode":"OPAQUE","name":"Gold"}]}