{"asset":{"version":"2.0","generator":"babylon.js glTF exporter for 3ds max 2018 v1.2.23","copyright":"2017 (c) BabylonJS"},"extensionsUsed":["KHR_lights"],"scene":0,"scenes":[{"nodes":[0,7],"extensions":{"KHR_lights":{"light":0}}}],"nodes":[{"children":[1,2,3,4,5,6],"translation":[0.0,0.0,0.0],"rotation":[0.0,0.0,0.0,1.0],"scale":[1.0,1.0,1.0],"name":"002"},{"mesh":0,"translation":[-0.0221338272,-11.23345,9.168146],"rotation":[0.7071068,0.0,0.0,0.7071067],"scale":[1.0,1.0,1.0],"name":"TextPlus006"},{"mesh":1,"translation":[0.115949631,3.831163,9.05917549],"rotation":[0.7071068,0.0,0.0,0.7071067],"scale":[1.0,1.0,1.0],"name":"TextPlus007"},{"mesh":2,"translation":[0.564407349,-9.419126,9.0540905],"rotation":[0.7071068,0.0,0.0,0.7071067],"scale":[1.0,1.0,1.0],"name":"Box010"},{"mesh":3,"translation":[-0.0362558365,8.058199,8.731472],"rotation":[0.7071068,0.0,0.0,0.7071067],"scale":[1.0,1.0,1.0],"name":"Box011"},{"mesh":4,"translation":[-36.23916,1.02081406,-0.3531455],"rotation":[-0.353553325,-0.8535535,0.14644666,-0.3535533],"scale":[1.0,1.0,0.99999994],"name":"Box012"},{"mesh":5,"translation":[-0.03502226,-35.3615265,-0.2508296],"rotation":[0.0,0.382683426,0.0,0.923879564],"scale":[1.0,1.0,1.0],"name":"Box013"},{"translation":[0.0,0.0,0.0],"rotation":[0.0,0.0,0.0,1.0],"scale":[1.0,1.0,1.0],"name":"Default light"}],"meshes":[{"primitives":[{"attributes":{"POSITION":1,"NORMAL":2,"TEXCOORD_0":3},"indices":0,"mode":4,"material":0}],"name":"TextPlus006"},{"primitives":[{"attributes":{"POSITION":5,"NORMAL":6,"TEXCOORD_0":7},"indices":4,"mode":4,"material":0}],"name":"TextPlus007"},{"primitives":[{"attributes":{"POSITION":9,"NORMAL":10,"TEXCOORD_0":11},"indices":8,"mode":4,"material":1}],"name":"Box010"},{"primitives":[{"attributes":{"POSITION":13,"NORMAL":14,"TEXCOORD_0":15},"indices":12,"mode":4,"material":1}],"name":"Box011"},{"primitives":[{"attributes":{"POSITION":17,"NORMAL":18,"TEXCOORD_0":19},"indices":16,"mode":4,"material":2}],"name":"Box012"},{"primitives":[{"attributes":{"POSITION":21,"NORMAL":22,"TEXCOORD_0":23},"indices":20,"mode":4,"material":3}],"name":"Box013"}],"accessors":[{"bufferView":0,"componentType":5123,"count":2652,"type":"SCALAR","name":"accessorIndices"},{"bufferView":1,"componentType":5126,"count":2652,"max":[32.7682076,1.5,0.0520000458],"min":[-32.7682152,-9.536743E-07,-3.89999962],"type":"VEC3","name":"accessorPositions"},{"bufferView":1,"byteOffset":31824,"componentType":5126,"count":2652,"type":"VEC3","name":"accessorNormals"},{"bufferView":2,"componentType":5126,"count":2652,"type":"VEC2","name":"accessorUVs"},{"bufferView":0,"byteOffset":5304,"componentType":5123,"count":1500,"type":"SCALAR","name":"accessorIndices"},{"bufferView":1,"byteOffset":63648,"componentType":5126,"count":1500,"max":[26.7620945,1.5,0.0],"min":[-26.7620964,0.0,-8.376376],"type":"VEC3","name":"accessorPositions"},{"bufferView":1,"byteOffset":81648,"componentType":5126,"count":1500,"type":"VEC3","name":"accessorNormals"},{"bufferView":2,"byteOffset":21216,"componentType":5126,"count":1500,"type":"VEC2","name":"accessorUVs"},{"bufferView":0,"byteOffset":8304,"componentType":5123,"count":36,"type":"SCALAR","name":"accessorIndices"},{"bufferView":1,"byteOffset":99648,"componentType":5126,"count":36,"max":[43.5,0.340720177,3.07534218],"min":[-43.6608124,-9.536743E-07,-2.99999952],"type":"VEC3","name":"accessorPositions"},{"bufferView":1,"byteOffset":100080,"componentType":5126,"count":36,"type":"VEC3","name":"accessorNormals"},{"bufferView":2,"byteOffset":33216,"componentType":5126,"count":36,"type":"VEC2","name":"accessorUVs"},{"bufferView":0,"byteOffset":8376,"componentType":5123,"count":36,"type":"SCALAR","name":"accessorIndices"},{"bufferView":1,"byteOffset":100512,"componentType":5126,"count":36,"max":[32.0,0.340720177,9.0],"min":[-32.0,-9.536743E-07,-9.000001],"type":"VEC3","name":"accessorPositions"},{"bufferView":1,"byteOffset":100944,"componentType":5126,"count":36,"type":"VEC3","name":"accessorNormals"},{"bufferView":2,"byteOffset":33504,"componentType":5126,"count":36,"type":"VEC2","name":"accessorUVs"},{"bufferView":0,"byteOffset":8448,"componentType":5123,"count":108,"type":"SCALAR","name":"accessorIndices"},{"bufferView":1,"byteOffset":101376,"componentType":5126,"count":108,"max":[2.92432022,55.3825455,42.02195],"min":[-42.0401726,-8.234137,-2.92432022],"type":"VEC3","name":"accessorPositions"},{"bufferView":1,"byteOffset":102672,"componentType":5126,"count":108,"type":"VEC3","name":"accessorNormals"},{"bufferView":2,"byteOffset":33792,"componentType":5126,"count":108,"type":"VEC2","name":"accessorUVs"},{"bufferView":0,"byteOffset":8664,"componentType":5123,"count":60,"type":"SCALAR","name":"accessorIndices"},{"bufferView":1,"byteOffset":103968,"componentType":5126,"count":60,"max":[7.749888,67.0569153,7.5],"min":[-7.50000048,0.0,-7.885632],"type":"VEC3","name":"accessorPositions"},{"bufferView":1,"byteOffset":104688,"componentType":5126,"count":60,"type":"VEC3","name":"accessorNormals"},{"bufferView":2,"byteOffset":34656,"componentType":5126,"count":60,"type":"VEC2","name":"accessorUVs"}],"bufferViews":[{"buffer":0,"byteLength":8784,"name":"bufferViewScalar"},{"buffer":0,"byteOffset":8784,"byteLength":105408,"byteStride":12,"name":"bufferViewFloatVec3"},{"buffer":0,"byteOffset":114192,"byteLength":35136,"byteStride":8,"name":"bufferViewFloatVec2"}],"buffers":[{"uri":"logo3d.bin","byteLength":149328}],"materials":[{"pbrMetallicRoughness":{"baseColorFactor":[1.0,1.0,1.0,1.0],"baseColorTexture":{"index":1,"texCoord":0},"metallicFactor":1.0,"roughnessFactor":1.0,"metallicRoughnessTexture":{"index":2,"texCoord":0}},"normalTexture":{"index":0,"texCoord":0},"emissiveFactor":[0.0,0.0,0.0],"alphaMode":"BLEND","name":"Material #25"},{"pbrMetallicRoughness":{"baseColorFactor":[1.0,1.0,1.0,1.0],"baseColorTexture":{"index":4,"texCoord":0},"metallicFactor":1.0,"roughnessFactor":1.0,"metallicRoughnessTexture":{"index":5,"texCoord":0}},"normalTexture":{"index":3,"texCoord":0},"emissiveFactor":[0.0,0.0,0.0],"alphaMode":"BLEND","name":"Material #26"},{"pbrMetallicRoughness":{"baseColorFactor":[1.0,1.0,1.0,1.0],"baseColorTexture":{"index":7,"texCoord":0},"metallicFactor":1.0,"roughnessFactor":1.0,"metallicRoughnessTexture":{"index":8,"texCoord":0}},"normalTexture":{"index":6,"texCoord":0},"emissiveFactor":[0.0,0.0,0.0],"alphaMode":"OPAQUE","name":"Material #20"},{"pbrMetallicRoughness":{"baseColorFactor":[1.0,1.0,1.0,1.0],"baseColorTexture":{"index":10,"texCoord":0},"metallicFactor":1.0,"roughnessFactor":1.0,"metallicRoughnessTexture":{"index":11,"texCoord":0}},"normalTexture":{"index":9,"texCoord":0},"emissiveFactor":[0.0,0.0,0.0],"alphaMode":"OPAQUE","name":"Material #24"}],"textures":[{"sampler":0,"source":0,"name":"Metal07_nrm.jpg"},{"sampler":1,"source":1,"name":"Metal07_col255_baseColor.jpg"},{"sampler":2,"source":2,"name":"Metal07_rghMetal07_met.jpg"},{"sampler":3,"source":3,"name":"Metal06_nrm.jpg"},{"sampler":4,"source":4,"name":"Metal06_col255_baseColor.jpg"},{"sampler":5,"source":5,"name":"Metal06_rghMetal06_met.jpg"},{"sampler":6,"source":6,"name":"Metal05_nrm.jpg"},{"sampler":7,"source":7,"name":"Metal05_col.jpg"},{"sampler":8,"source":8,"name":"Metal05_rghMetal05_met.jpg"},{"sampler":9,"source":9,"name":"Metal08_nrm.jpg"},{"sampler":10,"source":10,"name":"Metal08_col.jpg"},{"sampler":11,"source":11,"name":"Metal08_rghMetal08_met.jpg"}],"images":[{"uri":"Metal07_nrm.jpg"},{"uri":"Metal07_col255_baseColor.jpg"},{"uri":"Metal07_rghMetal07_met.jpg"},{"uri":"Metal06_nrm.jpg"},{"uri":"Metal06_col255_baseColor.jpg"},{"uri":"Metal06_rghMetal06_met.jpg"},{"uri":"Metal05_nrm.jpg"},{"uri":"Metal05_col.jpg"},{"uri":"Metal05_rghMetal05_met.jpg"},{"uri":"Metal08_nrm.jpg"},{"uri":"Metal08_col.jpg"},{"uri":"Metal08_rghMetal08_met.jpg"}],"samplers":[{"magFilter":9729,"minFilter":9987,"wrapS":10497,"wrapT":10497},{"magFilter":9729,"minFilter":9987,"wrapS":10497,"wrapT":10497},{"magFilter":9729,"minFilter":9987,"wrapS":10497,"wrapT":10497},{"magFilter":9729,"minFilter":9987,"wrapS":10497,"wrapT":10497},{"magFilter":9729,"minFilter":9987,"wrapS":10497,"wrapT":10497},{"magFilter":9729,"minFilter":9987,"wrapS":10497,"wrapT":10497},{"magFilter":9729,"minFilter":9987,"wrapS":10497,"wrapT":10497},{"magFilter":9729,"minFilter":9987,"wrapS":10497,"wrapT":10497},{"magFilter":9729,"minFilter":9987,"wrapS":10497,"wrapT":10497},{"magFilter":9729,"minFilter":9987,"wrapS":10497,"wrapT":10497},{"magFilter":9729,"minFilter":9987,"wrapS":10497,"wrapT":10497},{"magFilter":9729,"minFilter":9987,"wrapS":10497,"wrapT":10497}],"extensions":{"KHR_lights":{"lights":[{"color":[1.0,1.0,1.0],"intensity":1.0,"type":"ambient"}]}}}