{
    "accessors" : [
        {
            "bufferView" : 0,
            "componentType" : 5123,
            "count" : 24948,
            "max" : [
                9995
            ],
            "min" : [
                0
            ],
            "type" : "SCALAR"
        },
        {
            "bufferView" : 1,
            "componentType" : 5126,
            "count" : 9996,
            "max" : [
                44.9520263671875,
                3.230652093887329,
                26.988405227661133
            ],
            "min" : [
                -44.95203399658203,
                -3.9167540073394775,
                -40.9261474609375
            ],
            "type" : "VEC3"
        },
        {
            "bufferView" : 2,
            "componentType" : 5126,
            "count" : 9996,
            "max" : [
                0.4847559928894043,
                0.7897884845733643,
                0.8130601048469543
            ],
            "min" : [
                -0.48747313022613525,
                -0.7897579669952393,
                -0.47904154658317566
            ],
            "type" : "VEC3"
        },
        {
            "bufferView" : 3,
            "componentType" : 5126,
            "count" : 9996,
            "max" : [
                1.9992339611053467,
                1.3165979981422424
            ],
            "min" : [
                -0.9992340207099915,
                -0.6259310245513916
            ],
            "type" : "VEC2"
        },
        {
            "bufferView" : 4,
            "componentType" : 5123,
            "count" : 13716,
            "max" : [
                2583
            ],
            "min" : [
                0
            ],
            "type" : "SCALAR"
        },
        {
            "bufferView" : 5,
            "componentType" : 5126,
            "count" : 2584,
            "max" : [
                44.06440734863281,
                9.394811630249023,
                14.570184707641602
            ],
            "min" : [
                -43.096405029296875,
                9.054089546203613,
                8.494842529296875
            ],
            "type" : "VEC3"
        },
        {
            "bufferView" : 6,
            "componentType" : 5126,
            "count" : 2584,
            "max" : [
                1.0,
                1.0,
                0.999969482421875
            ],
            "min" : [
                -0.9989623427391052,
                -1.0,
                -0.999969482421875
            ],
            "type" : "VEC3"
        },
        {
            "bufferView" : 7,
            "componentType" : 5126,
            "count" : 2584,
            "max" : [
                2.6790199279785156,
                0.6518830060958862
            ],
            "min" : [
                -1.6790200471878052,
                0.34811699390411377
            ],
            "type" : "VEC2"
        },
        {
            "bufferView" : 8,
            "componentType" : 5123,
            "count" : 15360,
            "max" : [
                2855
            ],
            "min" : [
                0
            ],
            "type" : "SCALAR"
        },
        {
            "bufferView" : 9,
            "componentType" : 5126,
            "count" : 2856,
            "max" : [
                10.57158088684082,
                9.719608306884766,
                37.43724060058594
            ],
            "min" : [
                -10.641630172729492,
                -10.668148040771484,
                -29.619674682617188
            ],
            "type" : "VEC3"
        },
        {
            "bufferView" : 10,
            "componentType" : 5126,
            "count" : 2856,
            "max" : [
                0.7004303336143494,
                0.9980162978172302,
                1.0
            ],
            "min" : [
                -0.7052522301673889,
                -0.9975585341453552,
                -0.999969482421875
            ],
            "type" : "VEC3"
        },
        {
            "bufferView" : 11,
            "componentType" : 5126,
            "count" : 2856,
            "max" : [
                0.9994451999664307,
                0.9999996423721313,
                0.9935352206230164,
                1.0
            ],
            "min" : [
                -0.9991859793663025,
                -1.0,
                -0.9944204092025757,
                -1.0
            ],
            "type" : "VEC4"
        },
        {
            "bufferView" : 12,
            "componentType" : 5126,
            "count" : 2856,
            "max" : [
                1.3759700059890747,
                1.3382109999656677
            ],
            "min" : [
                -0.13680900633335114,
                -0.3382120132446289
            ],
            "type" : "VEC2"
        },
        {
            "bufferView" : 13,
            "componentType" : 5123,
            "count" : 2652,
            "max" : [
                1139
            ],
            "min" : [
                0
            ],
            "type" : "SCALAR"
        },
        {
            "bufferView" : 14,
            "componentType" : 5126,
            "count" : 1140,
            "max" : [
                32.74607467651367,
                10.668147087097168,
                13.361167907714844
            ],
            "min" : [
                -32.790348052978516,
                9.168146133422852,
                9.409168243408203
            ],
            "type" : "VEC3"
        },
        {
            "bufferView" : 15,
            "componentType" : 5126,
            "count" : 1140,
            "max" : [
                1.0,
                1.0,
                1.0
            ],
            "min" : [
                -1.0,
                -1.0,
                -1.0
            ],
            "type" : "VEC3"
        },
        {
            "bufferView" : 16,
            "componentType" : 5126,
            "count" : 1140,
            "max" : [
                1.3192050457000732,
                0.5494000017642975
            ],
            "min" : [
                -0.31920498609542847,
                0.4506000280380249
            ],
            "type" : "VEC2"
        },
        {
            "bufferView" : 17,
            "componentType" : 5123,
            "count" : 1500,
            "max" : [
                663
            ],
            "min" : [
                0
            ],
            "type" : "SCALAR"
        },
        {
            "bufferView" : 18,
            "componentType" : 5126,
            "count" : 664,
            "max" : [
                26.87804412841797,
                10.559176445007324,
                -1.7554450035095215
            ],
            "min" : [
                -26.646146774291992,
                9.059174537658691,
                -10.131820678710938
            ],
            "type" : "VEC3"
        },
        {
            "bufferView" : 19,
            "componentType" : 5126,
            "count" : 664,
            "max" : [
                1.0,
                1.0,
                1.0
            ],
            "min" : [
                -1.0,
                -1.0,
                -1.0
            ],
            "type" : "VEC3"
        },
        {
            "bufferView" : 20,
            "componentType" : 5126,
            "count" : 664,
            "max" : [
                1.169052004814148,
                0.6047050058841705
            ],
            "min" : [
                -0.16905200481414795,
                0.39529502391815186
            ],
            "type" : "VEC2"
        },
        {
            "bufferView" : 21,
            "componentType" : 5123,
            "count" : 11076,
            "max" : [
                2103
            ],
            "min" : [
                0
            ],
            "type" : "SCALAR"
        },
        {
            "bufferView" : 22,
            "componentType" : 5126,
            "count" : 2104,
            "max" : [
                31.9637451171875,
                9.07219409942627,
                3.017518997192383
            ],
            "min" : [
                -32.0362548828125,
                8.731470108032227,
                -14.982481002807617
            ],
            "type" : "VEC3"
        },
        {
            "bufferView" : 23,
            "componentType" : 5126,
            "count" : 2104,
            "max" : [
                1.0,
                1.0,
                1.0
            ],
            "min" : [
                -1.0,
                -1.0,
                -1.0
            ],
            "type" : "VEC3"
        },
        {
            "bufferView" : 24,
            "componentType" : 5126,
            "count" : 2104,
            "max" : [
                1.0,
                0.7071236371994019,
                1.0,
                1.0
            ],
            "min" : [
                -1.0,
                -0.7071235775947571,
                -1.0,
                1.0
            ],
            "type" : "VEC4"
        },
        {
            "bufferView" : 25,
            "componentType" : 5126,
            "count" : 2104,
            "max" : [
                1.5666669607162476,
                0.7999999970197678
            ],
            "min" : [
                -0.5666670203208923,
                0.19999998807907104
            ],
            "type" : "VEC2"
        }
    ],
    "asset" : {
        "generator" : "Khronos Blender glTF 2.0 exporter",
        "version" : "2.0"
    },
    "bufferViews" : [
        {
            "buffer" : 0,
            "byteLength" : 49896,
            "byteOffset" : 0,
            "target" : 34963
        },
        {
            "buffer" : 0,
            "byteLength" : 119952,
            "byteOffset" : 49896,
            "target" : 34962
        },
        {
            "buffer" : 0,
            "byteLength" : 119952,
            "byteOffset" : 169848,
            "target" : 34962
        },
        {
            "buffer" : 0,
            "byteLength" : 79968,
            "byteOffset" : 289800,
            "target" : 34962
        },
        {
            "buffer" : 0,
            "byteLength" : 27432,
            "byteOffset" : 369768,
            "target" : 34963
        },
        {
            "buffer" : 0,
            "byteLength" : 31008,
            "byteOffset" : 397200,
            "target" : 34962
        },
        {
            "buffer" : 0,
            "byteLength" : 31008,
            "byteOffset" : 428208,
            "target" : 34962
        },
        {
            "buffer" : 0,
            "byteLength" : 20672,
            "byteOffset" : 459216,
            "target" : 34962
        },
        {
            "buffer" : 0,
            "byteLength" : 30720,
            "byteOffset" : 479888,
            "target" : 34963
        },
        {
            "buffer" : 0,
            "byteLength" : 34272,
            "byteOffset" : 510608,
            "target" : 34962
        },
        {
            "buffer" : 0,
            "byteLength" : 34272,
            "byteOffset" : 544880,
            "target" : 34962
        },
        {
            "buffer" : 0,
            "byteLength" : 45696,
            "byteOffset" : 579152,
            "target" : 34962
        },
        {
            "buffer" : 0,
            "byteLength" : 22848,
            "byteOffset" : 624848,
            "target" : 34962
        },
        {
            "buffer" : 0,
            "byteLength" : 5304,
            "byteOffset" : 647696,
            "target" : 34963
        },
        {
            "buffer" : 0,
            "byteLength" : 13680,
            "byteOffset" : 653000,
            "target" : 34962
        },
        {
            "buffer" : 0,
            "byteLength" : 13680,
            "byteOffset" : 666680,
            "target" : 34962
        },
        {
            "buffer" : 0,
            "byteLength" : 9120,
            "byteOffset" : 680360,
            "target" : 34962
        },
        {
            "buffer" : 0,
            "byteLength" : 3000,
            "byteOffset" : 689480,
            "target" : 34963
        },
        {
            "buffer" : 0,
            "byteLength" : 7968,
            "byteOffset" : 692480,
            "target" : 34962
        },
        {
            "buffer" : 0,
            "byteLength" : 7968,
            "byteOffset" : 700448,
            "target" : 34962
        },
        {
            "buffer" : 0,
            "byteLength" : 5312,
            "byteOffset" : 708416,
            "target" : 34962
        },
        {
            "buffer" : 0,
            "byteLength" : 22152,
            "byteOffset" : 713728,
            "target" : 34963
        },
        {
            "buffer" : 0,
            "byteLength" : 25248,
            "byteOffset" : 735880,
            "target" : 34962
        },
        {
            "buffer" : 0,
            "byteLength" : 25248,
            "byteOffset" : 761128,
            "target" : 34962
        },
        {
            "buffer" : 0,
            "byteLength" : 33664,
            "byteOffset" : 786376,
            "target" : 34962
        },
        {
            "buffer" : 0,
            "byteLength" : 16832,
            "byteOffset" : 820040,
            "target" : 34962
        }
    ],
    "buffers" : [
        {
            "byteLength" : 836872,
            "uri" : "logo3d.bin"
        }
    ],
    "images" : [
        {
            "name" : "Metal08_col",
            "uri" : "Metal08_col.jpg"
        },
        {
            "name" : "Metal08_rghMetal08_met",
            "uri" : "Metal08_rghMetal08_met.jpg"
        },
        {
            "name" : "Metal08_nrm",
            "uri" : "Metal08_nrm.jpg"
        },
        {
            "name" : "Metal07_col",
            "uri" : "Metal07_col.jpg"
        },
        {
            "name" : "Metal07_rghMetal07_met",
            "uri" : "Metal07_rghMetal07_met.jpg"
        },
        {
            "name" : "Metal07_nrm",
            "uri" : "Metal07_nrm.jpg"
        },
        {
            "name" : "Metal06_col",
            "uri" : "Metal06_col.jpg"
        },
        {
            "name" : "Metal06_rghMetal06_met",
            "uri" : "Metal06_rghMetal06_met.jpg"
        },
        {
            "name" : "Metal06_nrm",
            "uri" : "Metal06_nrm.jpg"
        }
    ],
    "materials" : [
        {
            "name" : "Cobre",
            "normalTexture" : {
                "index" : 2
            },
            "pbrMetallicRoughness" : {
                "baseColorFactor" : [
                    0.9259999990463257,
                    0.7009999752044678,
                    0.5239999890327454,
                    1.0
                ],
                "baseColorTexture" : {
                    "index" : 0
                },
                "metallicRoughnessTexture" : {
                    "index" : 1
                },
                "roughnessFactor" : 0.3499999940395355
            }
        },
        {
            "name" : "Oro",
            "normalTexture" : {
                "index" : 5
            },
            "pbrMetallicRoughness" : {
                "baseColorFactor" : [
                    0.9330000281333923,
                    0.7739999890327454,
                    0.37400001287460327,
                    1.0
                ],
                "baseColorTexture" : {
                    "index" : 3
                },
                "metallicRoughnessTexture" : {
                    "index" : 4
                },
                "roughnessFactor" : 0.07999999821186066
            }
        },
        {
            "name" : "silverMetal",
            "normalTexture" : {
                "index" : 8
            },
            "pbrMetallicRoughness" : {
                "baseColorFactor" : [
                    0.9279999732971191,
                    0.949999988079071,
                    0.9620000123977661,
                    1.0
                ],
                "baseColorTexture" : {
                    "index" : 6
                },
                "metallicRoughnessTexture" : {
                    "index" : 7
                },
                "roughnessFactor" : 0.550000011920929
            }
        }
    ],
    "meshes" : [
        {
            "name" : "Box016.003",
            "primitives" : [
                {
                    "attributes" : {
                        "NORMAL" : 2,
                        "POSITION" : 1,
                        "TEXCOORD_0" : 3
                    },
                    "indices" : 0,
                    "material" : 2
                }
            ]
        },
        {
            "name" : "Box014.003",
            "primitives" : [
                {
                    "attributes" : {
                        "NORMAL" : 6,
                        "POSITION" : 5,
                        "TEXCOORD_0" : 7
                    },
                    "indices" : 4,
                    "material" : 2
                }
            ]
        },
        {
            "name" : "Box017.003",
            "primitives" : [
                {
                    "attributes" : {
                        "NORMAL" : 10,
                        "POSITION" : 9,
                        "TANGENT" : 11,
                        "TEXCOORD_0" : 12
                    },
                    "indices" : 8,
                    "material" : 0
                }
            ]
        },
        {
            "name" : "TextPlus008.003",
            "primitives" : [
                {
                    "attributes" : {
                        "NORMAL" : 15,
                        "POSITION" : 14,
                        "TEXCOORD_0" : 16
                    },
                    "indices" : 13,
                    "material" : 1
                }
            ]
        },
        {
            "name" : "TextPlus009.003",
            "primitives" : [
                {
                    "attributes" : {
                        "NORMAL" : 19,
                        "POSITION" : 18,
                        "TEXCOORD_0" : 20
                    },
                    "indices" : 17,
                    "material" : 1
                }
            ]
        },
        {
            "name" : "Box015.003",
            "primitives" : [
                {
                    "attributes" : {
                        "NORMAL" : 23,
                        "POSITION" : 22,
                        "TANGENT" : 24,
                        "TEXCOORD_0" : 25
                    },
                    "indices" : 21,
                    "material" : 2
                }
            ]
        }
    ],
    "nodes" : [
        {
            "mesh" : 1,
            "name" : "Box014.004",
            "rotation" : [
                0.7071068286895752,
                0.0,
                -0.0,
                0.7071067094802856
            ]
        },
        {
            "mesh" : 5,
            "name" : "Box015.004",
            "rotation" : [
                0.7071068286895752,
                0.0,
                -0.0,
                0.7071067094802856
            ]
        },
        {
            "mesh" : 0,
            "name" : "Box016.004",
            "rotation" : [
                0.7071068286895752,
                0.0,
                -0.0,
                0.7071067094802856
            ]
        },
        {
            "mesh" : 2,
            "name" : "Box017.005",
            "rotation" : [
                0.7071068286895752,
                0.0,
                -0.0,
                0.7071067094802856
            ]
        },
        {
            "mesh" : 3,
            "name" : "TextPlus008.004",
            "rotation" : [
                0.7071068286895752,
                0.0,
                -0.0,
                0.7071067094802856
            ]
        },
        {
            "mesh" : 4,
            "name" : "TextPlus009.004",
            "rotation" : [
                0.7071068286895752,
                0.0,
                -0.0,
                0.7071067094802856
            ]
        }
    ],
    "samplers" : [
        {}
    ],
    "scene" : 0,
    "scenes" : [
        {
            "name" : "Scene",
            "nodes" : [
                4,
                2,
                1,
                3,
                5,
                0
            ]
        }
    ],
    "textures" : [
        {
            "sampler" : 0,
            "source" : 0
        },
        {
            "sampler" : 0,
            "source" : 1
        },
        {
            "sampler" : 0,
            "source" : 2
        },
        {
            "sampler" : 0,
            "source" : 3
        },
        {
            "sampler" : 0,
            "source" : 4
        },
        {
            "sampler" : 0,
            "source" : 5
        },
        {
            "sampler" : 0,
            "source" : 6
        },
        {
            "sampler" : 0,
            "source" : 7
        },
        {
            "sampler" : 0,
            "source" : 8
        }
    ]
}
