<svg xmlns="http://www.w3.org/2000/svg" width="2964.65344" height="597.71545" viewBox="0 0 2964.65344 597.71545"><title>native_logo_1</title><g id="Capa_2" data-name="Capa 2"><g id="Capa_1-2" data-name="Capa 1"><path d="M239.45858,590.60391q-7.1453,2.02515-14.2901,4.05212c-12.04613,3.44434-24.3768,2.35443-36.642,2.31445-25.38461-4.64948-40.939-20.69452-49.86861-43.84991-9.73239-25.23694-10.19417-51.56763-8.4785-78.16608,1.04045-16.1301,3.77556-31.97287,6.50247-47.8403a109.55167,109.55167,0,0,1,2.62546-11.13644c.85149-3.01913.561-4.38422-3.0623-5.51233-31.913-9.936-62.79766-22.19647-90.34047-41.65814C30.70838,358.06967,17.14494,345.78735,8.21542,329.1159c-12.31228-22.98718-10.51344-45.36661,3.57118-66.828,14.847-22.62317,36.71294-36.998,60.00355-49.44312,20.80673-11.11784,42.81929-19.3317,65.36-26.16153,2.0726-.628,3.08852-1.31433,2.4976-3.78955a368.3319,368.3319,0,0,1-8.3844-47.519,279.87249,279.87249,0,0,1-1.04356-51.793c1.10229-13.51842,3.45847-26.6923,8.41022-39.28249,9.08527-23.10012,24.53181-39.17811,49.8967-43.8641C199.65446.5,210.81855-.589,221.84987,1.98614c19.46306,4.54338,37.14528,13.13776,54.05019,23.51724,20.71753,12.72041,39.45749,28.00807,57.17209,44.57093,2.43881,2.28026,3.64471,1.9462,5.88467-.11726,24.725-22.77692,51.071-43.225,81.68756-57.75463C440.6557,2.7057,461.47924-1.45817,483.53058.45445c20.71469,3.74665,35.382,15.51194,45.2251,33.84624,7.508,13.98466,11.12457,29.07374,12.70477,44.67463a265.77463,265.77463,0,0,1-2.55371,69.59029c-1.754,10.8273-3.65729,21.58711-6.16321,32.257-.67175,2.86012-.71356,4.90335,3.35425,6.18663,32.82434,10.35519,64.64856,23.00574,92.71619,43.50285,15.97449,11.66583,29.86755,25.22382,37.92816,43.80154,8.931,20.58371,6.26111,40.1409-5.259,58.85205-12.27283,19.93375-30.4397,33.46762-50.05737,45.25137C592.17651,389.97958,571.3985,398.2854,550.39453,406.02c-4.50873,1.66034-9.06488,3.446-13.758,4.27615-4.2558.75281-4.82715,2.971-3.90326,6.267,1.88593,6.72842,2.92963,13.61755,4.292,20.4494a286.41277,286.41277,0,0,1,5.17322,74.96469c-1.19971,18.28418-4.97186,36.2157-14.11389,52.4801-8.35687,14.86749-20.11594,25.77087-36.90579,30.539a28.55514,28.55514,0,0,0-3.65427,1.59833c-9.57281.72955-19.07486,1.93225-28.75134.32172-9.2532-1.54016-18.47266-2.88184-26.979-7.11475a8.11256,8.11256,0,0,0-4.26431-1.1665l-.33-.11615-.349.04419q-15.15207-7.95264-30.30014-15.90637l.00919.01147q-8.12141-5.64844-16.24414-11.29474c-14.994-10.36993-28.73239-22.2652-42.11591-34.5957-1.15286-1.06219-2.01-2.3678-3.96283-.43237-5.02625,4.98157-10.40073,9.61169-15.636,14.38226l-.04089.03149c-5.15173,4.04675-10.37058,8.01166-15.44006,12.15906-8.79285,7.1936-18.48947,13.10321-27.6889,19.717a1.25325,1.25325,0,0,0-.91022.29437,2.87954,2.87954,0,0,0-2.16043,1.69592c-.75751.0246-1.503.07538-1.90341.87665q-12.97627,6.56653-25.95322,13.131-1.02791.28766-2.05661.57843c-1.05637.35065-2.25027.40906-2.98358,1.43024Zm87.57974-182.86819c27.53726.002,46.98416-.82788,66.42334-2.03345,3.25983-.20218,5.14368-1.72083,6.74881-4.23007,5.80038-9.06741,11.72562-18.05554,17.47189-27.15683a734.13537,734.13537,0,0,0,40.01831-72.68521,6.40287,6.40287,0,0,0-.14816-6.12283,777.81712,777.81712,0,0,0-57.80594-100.26015,7.43467,7.43467,0,0,0-6.11737-3.53444c-15.60123-1.21915-31.2377-1.64267-46.86856-1.92722-22.80713-.41518-45.59393.4024-68.35895,1.9102-3.01248.19954-4.66479,1.36238-6.34961,3.83208-21.42091,31.39992-40.08546,64.38358-57.03984,98.36911a9.8375,9.8375,0,0,0-.05344,9.448,841.82884,841.82884,0,0,0,57.52269,99.243,6.21927,6.21927,0,0,0,5.25031,3.093C296.83664,406.86349,315.94775,407.79434,327.03833,407.73572Zm315.223-109.80228c-.05762-.28381-.26715-1.09109-.38141-1.91159-2.23236-16.02921-12.67114-26.71765-24.34375-36.24768-25.6181-20.91574-55.77533-32.91879-86.80615-43.01044-6.35876-2.068-6.51562-1.85649-8.78387,4.9119-7.58643,22.63794-15.374,45.22015-25.483,66.866-3.26688,6.99524-3.46793,12.64987-.18124,19.89035a509.314,509.314,0,0,1,26.60226,71.65262c.61145,2.15869,1.7309,2.705,4.09729,1.92383,16.99561-5.61084,33.87054-11.50635,50.0174-19.31131,19.36371-9.35986,37.73883-20.16132,52.38544-36.29782C636.58093,318.47049,641.58954,309.4469,642.26135,297.93344ZM512.63946,101.09837c.52362-18.465-3.19241-36.23421-8.04883-47.91028-7.15005-17.19059-18.13174-24.33835-36.77179-23.5292-10.76953.46749-20.8663,3.85046-30.63763,8.12444-28.76611,12.58227-53.13062,31.54289-76.142,52.52275-3.43585,3.13253-2.9176,4.91423-.15445,7.85447a584.25913,584.25913,0,0,1,50.588,61.955,7.84037,7.84037,0,0,0,6.03427,3.70956c9.89743,1.032,19.77786,2.26753,29.63434,3.64351,17.58762,2.4552,34.98221,6.01749,52.362,9.6111,2.73434.56537,3.65982-.18951,4.10858-2.59947,1.06186-5.70212,2.13507-11.40285,3.28448-17.0878A274.57046,274.57046,0,0,0,512.63946,101.09837ZM159.40875,494.43777a153.75418,153.75418,0,0,0,1.079,21.42334c1.24367,10.7724,3.27692,21.37762,8.182,31.13647,8.12141,16.1579,19.242,22.28662,37.13809,20.67853,10.17668-.91449,19.83974-3.96271,29.14735-8.01715,29.30357-12.76471,53.8185-32.47388,77.33763-53.61252,1.98325-1.7825,2.18344-3.00452.2168-5.11349a565.57443,565.57443,0,0,1-49.5022-60.35312c-3.96539-5.64435-8.68863-7.38037-14.87489-7.86713-17.07433-1.34341-33.93077-4.28476-50.75612-7.37262-8.31783-1.52658-16.60818-3.21326-24.87981-4.97388-2.09665-.44626-3.40334-.58109-3.99146,2.036C163.17331,446.12921,159.50876,470.0582,159.40875,494.43777ZM207.90553,29.796c-20.70845-.65687-31.32278,5.57138-38.19812,18.75852-7.17139,13.755-9.36891,28.60091-10.08437,43.695-1.3228,27.90767,2.65123,55.31512,8.83922,82.46237.61606,2.70267,1.75092,2.99005,4.20468,2.459,8.25987-1.78749,16.57413-3.323,24.864-4.97276a482.67531,482.67531,0,0,1,51.17369-7.5943c5.09572-.45625,9.55089-1.20073,13.11366-6.236a579.82246,579.82246,0,0,1,50.703-61.85826c2.44083-2.60046,1.23938-3.78152-.62558-5.48024C292.99035,73.8095,273.098,57.88259,250.6614,45.45019,235.48257,37.03941,219.611,30.43748,207.90553,29.796ZM512.52124,491.82358c-.24683-3.82715.20752-10.14774-.49908-16.47427-1.80652-16.17447-4.08905-32.256-7.42621-48.20038-1.456-6.95642-1.898-7.619-8.849-6.27881-.4884.09418-.9585.28-1.44473.3894a594.768,594.768,0,0,1-71.23938,11.62805c-4.20117.42133-8.75632.03546-11.92,4.6474-15.23038,22.20291-32.60773,42.71109-50.79605,62.51749-2.7244,2.9668-2.18533,4.28992.3493,6.642a341.93487,341.93487,0,0,0,38.91913,31.6496c19.38309,13.29919,39.59717,24.82526,63.24817,28.99518,19.274,3.39819,34.605-4.98523,41.76843-23.19147C510.94549,528.10141,512.94781,511.40457,512.52124,491.82358ZM146.644,215.07094c-.63237.20769-1.2618.42491-1.89754.62167-21.40611,6.626-42.29575,14.55643-62.00762,25.29449-16.23867,8.846-31.53186,19.0258-43.0591,33.85768-4.91693,6.32651-8.78885,13.12253-9.36642,21.54138-.69686,10.15771,3.25015,18.46066,9.238,26.06842,11.83114,15.03189,27.38144,25.33267,43.958,34.34787,19.58385,10.65076,40.3844,18.26532,61.49619,25.16391,2.22058.72562,2.99457.59891,3.79111-1.90967,8.46812-26.66931,18.07489-52.91968,29.78429-78.35742,1.21433-2.63809.541-4.75653-.51181-7.086-4.90488-10.85269-9.28174-21.92334-13.74779-32.96225-5.91106-14.61063-10.51514-29.65817-15.63293-44.53467C148.323,216.05415,148.45269,214.63431,146.644,215.07094Zm50.56868,47.76585c11.90739-22.76735,24.51051-44.37109,38.021-65.914-6.31375-.89326-11.58034,1.12909-16.93338,1.91658-12.60649,1.85457-25.13478,4.2531-37.52962,7.28342-2.52151.61646-3.61977,1.40379-2.56343,4.36638,2.38647,6.69305,4.113,13.62317,6.543,20.29851C188.58432,241.31965,192.08046,251.999,197.2127,262.83679ZM297.763,160.93736a628.45894,628.45894,0,0,1,77.22681-.08131c-5.886-7.296-10.64432-13.46194-15.69028-19.38283-6.67163-7.8284-13.556-15.476-20.37878-23.17475-1.40433-1.58465-2.70221-3.69319-5.1037-.96712-8.88382,10.08463-18.083,19.89959-26.29984,30.55326C304.42163,151.89827,300.6391,155.42256,297.763,160.93736Zm77.0083,275.51186a613.97223,613.97223,0,0,1-77.1507.07751c1.40314,2.148,2.09906,3.43994,3.00378,4.56378,10.502,13.04471,21.13113,25.97336,32.64474,38.16461,2.50583,2.65335,3.75983,2.16342,5.77069-.19562,3.97964-4.66864,8.17834-9.14975,12.23712-13.752C359.15478,456.37491,366.75192,447.21341,374.7713,436.44922ZM197.04655,334.40954c-7.21451,17.47549-13.358,34.44-18.67455,51.72546-1.0652,3.46329-.11382,4.65265,3.06526,5.40451,15.84209,3.74695,31.92657,6.18671,47.94658,8.96716,1.52251.26422,3.78831,1.0668,4.63889-.44388.97794-1.73694-1.0014-3.3764-1.92514-4.79788C219.5439,375.94748,208.58969,355.71176,197.04655,334.40954ZM436.8959,400.43081c6.09134,1.00107,11.32657-1.12234,16.66956-1.85062,12.63483-1.72211,25.11246-4.38907,37.55212-7.21683,3.31131-.75269,3.76138-2.09421,2.64822-5.21115-3.33618-9.34155-6.15717-18.86743-9.507-28.20377-2.7403-7.63748-5.95071-15.10626-9.35782-23.66766C462.825,357.49649,450.3295,379.03024,436.8959,400.43081Zm38.00223-137.57336c7.83469-17.87688,13.36374-35.3862,19.29291-52.74934.765-2.24011-.01825-3.20184-2.32022-3.807-10.42319-2.73991-21.02274-4.62206-31.61981-6.44095-7.558-1.29724-15.11377-2.98834-23.60034-3.16811C450.46783,218.39216,462.7351,240.06256,474.89813,262.85745Z" style="fill:#fff"/><path d="M1914.82556,201.49359c.29395,6.61246.48694,12.38148.8175,18.14262,1.3252,23.105,1.88489,46.23283,1.92163,69.37038.07678,48.32449-.01135,96.64929.15479,144.97336.01489,4.34476-1.01636,5.84689-5.52393,5.63382-7.81445-.36935-15.66663-.311-23.48767-.01968-4.10864.15308-5.39111-1.06036-5.37451-5.28638.153-38.82571.08691-77.65225.08618-116.47858-.00085-51.65735.06311-103.31488-.10388-154.97168-.01587-4.87546.94067-6.71742,6.26135-6.46022,9.97485.48216,19.99048.2056,29.98743.09817a6.06323,6.06323,0,0,1,6.00647,3.23288c19.83691,31.57813,39.89282,63.01862,59.79236,94.5576,22.02356,34.90552,44.83,69.344,63.9779,105.9823,4.59107,8.78452,8.86524,17.73456,13.27783,26.61221.575,1.1571.85327,2.53058,2.72,3.19846-.74634-10.56348-1.47217-20.903-2.21387-31.24133-.095-1.32465-.35571-2.64066-.39893-3.9653-2.11255-64.625-.99707-129.27156-1.34692-193.90857-.01929-3.5555,1.16528-4.57762,4.595-4.49217,8.16016.20332,16.33789.29655,24.49023-.02686,4.47437-.17751,5.9563.99446,5.92651,5.76015-.21436,34.65891-.115,69.31975-.11523,103.98q-.00073,82.73506-.0022,165.47012c0,7.85223-.002,7.85382-7.60107,7.854-8.33179.00021-16.66772-.15436-24.99341.06885-3.4021.09119-5.4165-1.01343-7.22852-3.94135q-23.81634-38.48282-47.90063-76.8c-18.3634-29.3707-37.05835-58.54034-54.99963-88.16656-12.69812-20.96855-24.81177-42.31894-35.095-64.62941A10.21291,10.21291,0,0,0,1914.82556,201.49359Z" style="fill:#fff"/><path d="M949.26123,303.62808c4.794,2.78989,9.24658,4.94131,13.21454,7.77206,12.26636,8.751,19.28589,21.24377,23.9743,35.18112,5.34692,15.89471,8.11066,32.4592,12.31049,48.65042,3.57587,13.78571,6.90155,27.68491,12.4538,40.86435,1.16809,2.77277.82275,3.47086-2.12488,3.44583-10.33166-.08774-20.66656-.15106-30.99573.03165-3.24371.0574-4.48535-1.81976-5.31573-4.22369-5.03845-14.58569-8.71234-29.54279-12.41754-44.51422-3.49677-14.129-5.78125-28.58371-11.38269-42.18964-7.33923-17.827-20.21283-28.25656-39.34167-30.96741-14.10382-1.99872-28.27557-.52451-42.40875-.96024-3.29114-.10144-2.58478,2.36169-2.58875,4.21625q-.05035,23.49783-.01971,46.99579c-.0011,22.16467-.08411,44.33.07379,66.4935.027,3.79437-.80688,5.31824-4.932,5.17725-8.82227-.30148-17.66541-.23642-26.4928-.02228-3.58282.08688-4.91144-.79019-4.90692-4.68924q.15637-135.23767-.03088-270.47545c-.00647-4.14323,1.85809-5.06294,5.16846-5.60182,28.564-4.64986,57.37787-5.41879,86.13458-3.80511,21.54272,1.20888,42.14972,6.55417,59.33813,21.14313,14.7486,12.51825,21.67242,28.8636,23.31561,47.43042,2.26282,25.56749-5.93616,47.43472-25.662,64.46945a78.152,78.152,0,0,1-21.158,12.76456C953.54144,301.62134,951.66131,302.536,949.26123,303.62808Zm-84.645-66.91631c0,15.65421.158,31.311-.10315,46.96089-.07184,4.30356,1.33429,5.28473,5.37689,5.18567,10.81824-.265,21.64929-.2244,32.47131-.05493a85.58394,85.58394,0,0,0,26.46851-3.89169c36.34381-11.04492,46.35449-50.56828,29.47382-78.3241-10.25763-16.866-27.75781-22.02356-46.003-23.59222-14.1955-1.22047-28.56781-1.13084-42.77838,1.54721-3.71259.69968-5.02313,1.90625-4.9787,5.70706C864.72448,205.73521,864.61889,221.2241,864.61627,236.71177Z" style="fill:#fff"/><path d="M2892.03088,344.614q-32.49976.00536-64.99976.006c-6.356.00189-6.2312.0061-5.75342,6.389,1.07471,14.36057,4.93677,27.71161,13.58032,39.46768,7.46289,10.15082,17.58447,16.65341,29.37183,20.20566,25.10474,7.56561,49.94214,4.83212,74.39185-3.38028,8.20264-2.75519,8.06714-2.98233,10.10547,5.66107.98877,4.19223,2.23144,8.32449,3.35376,12.48529.97339,3.6084.60083,5.85266-3.7251,7.55869-18.34424,7.23453-37.38013,10.13477-56.947,10.80273-19.73926.67389-38.78247-2.0282-56.45605-11.211-18.92114-9.831-32.689-24.604-40.50269-44.56766-13.25415-33.86264-12.11523-67.63507,1.95825-100.86786,10.69531-25.25592,29.00122-43.12988,55.42358-51.409,29.04785-9.10173,66.17285-5.55911,88.988,20.57671,9.678,11.08649,15.72632,24.038,19.71509,38.12033,4.14429,14.62921,4.4458,29.51846,3.92749,44.53717-.14282,4.14441-1.47827,5.76392-5.93286,5.72049C2936.36535,344.49295,2914.19739,344.61041,2892.03088,344.614Zm-16.91675-26.79431c16.31055,0,32.62085-.03,48.9314.02917,2.75977.01,4.68018-.06281,4.73291-3.8219.35107-25.0864-14.53-54.77625-46.75757-55.76663-15.28394-.46967-28.45044,3.12106-39.52515,13.79544-11.562,11.1442-17.35937,25.12213-20.51318,40.55609-.83887,4.10455.0144,5.31827,4.20117,5.27527C2842.49231,317.71966,2858.80383,317.81885,2875.11413,317.81967Z" style="fill:#fff"/><path d="M1144.96032,344.60846c-21.66455.0014-43.33057.14267-64.99231-.1069-4.86389-.056-6.22632.71472-5.89294,6.13394.79346,12.90491,3.95727,24.95178,10.84582,35.77417,10.17322,15.98285,25.428,24.33087,43.81165,27.27737,12.25207,1.96378,24.54761,1.431,36.81128-.122a109.65274,109.65274,0,0,0,31.13159-8.19461c1.98926-.886,3.19751-.40878,3.68848,1.73273,1.63123,7.11572,3.21594,14.24249,4.91138,21.3429.57764,2.41907-.77551,3.30832-2.64294,4.027a163.02669,163.02669,0,0,1-43.93481,10.396c-13.12647,1.20255-26.18933,1.82236-39.23352-.25281-28.83057-4.58649-52.16931-17.81021-66.95544-43.7883-14.476-25.43307-16.41492-52.82385-12.23279-81.1763,3.23425-21.92645,11.61511-41.48459,26.52649-57.87726,15.78784-17.35626,35.81531-26.40817,59.17224-28.06693,18.637-1.32353,36.46826,1.41652,52.46631,11.69518,16.95984,10.89662,27.32739,26.82368,33.27148,45.74535a121.26954,121.26954,0,0,1,5.07837,51.19034c-.47888,4.03629-2.10034,4.336-5.33716,4.32132C1189.28955,344.55942,1167.12475,344.60705,1144.96032,344.60846Zm-17.08948-26.7811c16.15186,0,32.30627-.1571,48.454.1004,4.55627.07263,5.74634-1.427,5.3977-5.753a87.3413,87.3413,0,0,0-5.02978-23.74658c-10.91077-29.29507-42.55054-36.21585-65.97729-26.4472-22.38916,9.336-31.14026,28.91455-36.09509,50.89584-.77637,3.4437.21826,5.08673,4.29651,5.03323C1095.2323,317.696,1111.55249,317.82168,1127.87085,317.82736Z" style="fill:#fff"/><path d="M2301.3883,358.66961c0,11.66046-.09131,23.32184.02344,34.98117.13916,14.13062.33081,28.26935,2.88062,42.23779.46289,2.53659-.283,3.68576-3.05493,3.65378-8.9939-.10391-17.99-.06454-26.98511-.0361-2.3916.00757-3.56543-.8316-3.77222-3.45569-.49561-6.28647-1.303-12.54849-1.99512-18.81921-.12158-1.09973.21191-2.59082-1.29956-2.8512-1.03052-.17758-1.64819.90814-2.29834,1.67963-19.106,22.67923-43.65552,30.83456-72.55029,26.73288-23.72827-3.36826-39.885-16.63171-47.20557-39.35229-9.61255-29.83478,4.85059-62.50906,32.83911-76.6235,20.80713-10.493,42.99341-15.1188,66.0874-16.14252,5.81372-.25766,11.62451-.59973,17.44019-.79465,2.01245-.06744,3.01978-.70969,3.08154-2.89334.51416-18.18744-5.53223-38.74026-27.19189-45.42136-11-3.39307-22.176-3.55389-33.52173-1.62018a105.85731,105.85731,0,0,0-35.07617,12.0983c-2.386,1.36-3.61548,1.48212-4.52905-1.7298a173.83734,173.83734,0,0,0-5.88745-16.905c-1.1792-2.94917-.44263-4.57364,2.14478-6.05725a117.09376,117.09376,0,0,1,43.16235-14.47447,134.96525,134.96525,0,0,1,36.81177-.26682c25.71411,3.62827,44.2439,16.55994,54.02661,41.04807,5.00391,12.5249,6.51514,25.71811,6.75464,39.03748.27539,15.32019.06372,30.64914.06372,45.9743ZM2265.506,356.489c0-6.38226-.08057-11.8804.0354-17.37436.05469-2.59045-.94629-3.50339-3.521-3.50391-18.01221-.00366-35.95923.79706-53.03613,7.18942-15.13525,5.66559-26.78052,15.06473-28.98389,32.28751-1.77563,13.88007.60791,26.73917,13.085,35.35806,9.22583,6.373,19.63721,7.42377,30.53076,5.36276,19.58374-3.70511,32.88062-14.7464,39.7251-33.51883C2266.51648,373.5805,2265.18884,364.53106,2265.506,356.489Z" style="fill:#fff"/><path d="M1406.53271,360.84723c0,15.66635.10132,31.33359-.03821,46.99866-.0835,9.36316,1.54541,18.5621,2.43664,27.82034.34595,3.59372-.66431,3.90457-3.50732,3.87555q-12.74835-.1301-25.49915.00351c-2.78454.02731-4.246-.73914-4.47559-3.88129-.423-5.79037-1.25476-11.55289-2.00317-17.3157-.16138-1.24332-.11414-2.90332-1.65149-3.30579-1.36255-.35669-1.958,1.19144-2.59827,1.98587a69.99972,69.99972,0,0,1-32.82385,22.54279c-25.094,8.46674-56.77014,5.4881-74.649-15.26056-11.87183-13.7775-15.72351-29.86639-13.6698-47.80011,2.88-25.14978,17.70349-41.02829,39.31177-51.77463,15.20276-7.56076,31.60144-10.83777,48.29089-13.02689,9.75464-1.27954,19.567-1.44357,29.36548-1.74826,3.41565-.10623,4.7627-1.01889,4.60144-4.5744-.65491-14.45453-3.0061-28.14572-15.4231-37.77554-7.67578-5.95279-16.71985-8.30206-26.07581-8.722a97.13575,97.13575,0,0,0-53.9176,13.06479c-2.63623,1.52386-4.21411,1.33505-5.21265-1.69806-1.96851-5.97968-3.891-11.9798-6.08337-17.87825-1.09216-2.93852.83667-3.95282,2.63354-5.03314a108.49309,108.49309,0,0,1,31.86438-12.36214c16.85315-3.88173,34.03613-5.07893,51.04346-2.00111,28.06812,5.07951,45.97058,20.409,54.00293,49.78874,3.94336,14.42355,4.22571,29.23123,4.0011,44.07852-.17151,11.3306-.03418,22.66589-.03418,33.99908Zm-36.00854-4.52222c0-5.6582-.10876-11.31937.04614-16.97333.07715-2.81268-.93542-3.762-3.7428-3.75229-17.47632.06039-34.78027.96106-51.52258,6.85229-19.52283,6.86966-32.21448,20.12711-30.82666,43.08325.7666,12.67825,9.48413,25.18036,20.9502,28.96176,23.60876,7.78592,51.30774-5.00879,61.36011-27.81888C1371.15259,376.77554,1370.41443,366.57577,1370.52417,356.325Z" style="fill:#fff"/><path d="M2669.28283,403.19336c3.27759-9.91269,6.105-18.66248,9.063-27.36786q9.35083-27.51833,18.8208-54.99606,11.60706-33.60759,23.32568-67.17667c1.51831-4.38126,2.95532-8.79156,4.37158-13.20714,1.0127-3.15794,2.57861-4.82391,6.42432-4.68886,9.81909.34476,19.65967.20537,29.489.07518,3.69971-.049,4.2627,1.16689,2.95361,4.4761Q2742.343,294.36356,2721.12,348.484c-11.43823,29.10391-22.91382,58.19366-34.15625,87.373-1.15308,2.99249-2.666,3.7009-5.45972,3.67386-8.99731-.087-17.9978-.14539-26.99243.03125-3.15967.062-4.78076-1.02225-5.90112-4.01129q-13.8717-37.00781-27.98853-73.92358-17.67737-46.43779-35.4082-92.85538c-3.6543-9.60513-7.09814-19.29111-10.8147-28.87154-1.24024-3.19647-.4668-4.112,2.86792-4.071,10.49634.12892,20.99829.19479,31.49072-.04539,3.31812-.076,4.40088,1.7368,5.24487,4.17461q15.36548,44.37893,30.69165,88.77159c5.53467,15.97614,11.27222,31.88321,16.66138,47.90771C2664.17077,385.00778,2666.43005,393.56451,2669.28283,403.19336Z" style="fill:#fff"/><path d="M1561.19787,261.47116c-20.68665-.14471-39.00293,5.7728-53.27087,21.38364-10.50354,11.49194-16.0835,25.362-18.22119,40.667-3.24487,23.2323-.01489,45.12283,14.29883,64.39252,10.481,14.10977,24.7251,22.26086,42.07983,24.87216a96.40951,96.40951,0,0,0,54.51331-7.3595c2.70667-1.2027,4.021-.596,4.6665,2.15842,1.66553,7.10712,3.36316,14.20666,5.04236,21.31055.48547,2.054-.09253,3.198-2.24975,4.17609a120.20408,120.20408,0,0,1-35.40979,9.54047c-12.54834,1.52762-25.11865,1.98645-37.72742.10852-23.28406-3.46793-43.20459-12.93222-59.04944-30.85471-12.64685-14.30487-19.90747-31.0867-22.91028-49.45-5.27893-32.2829-.70935-62.92719,19.28784-89.90256,12.18384-16.43539,28.24072-27.62619,47.72632-34.14679,27.49524-9.201,54.85254-8.446,82.23083.19118,9.54224,3.01036,9.46387,3.08572,6.62354,12.68379-1.59815,5.40063-2.95984,10.87079-4.50952,16.28632-.57446,2.00769-1.05786,3.74039-4.07959,2.14618C1588.04028,263.23858,1574.75024,261.63324,1561.19787,261.47116Z" style="fill:#fff"/><path d="M2405.52185,324.34848c0,17.82358-.27173,35.653.1145,53.46823.19287,8.89581.83911,17.88806,6.5022,25.61142,4.343,5.92322,9.97534,9.27222,17.21289,9.33112,7.44653.06064,15.01221,1.07724,22.29053-1.492,2.44067-.86157,2.79712.41287,2.94849,2.41147q.77234,10.18684,1.75684,20.357c.27124,2.76926-.16968,4.88681-3.25415,5.72272-18.96,5.13815-37.91553,7.29587-56.36011-1.63806-13.0979-6.34418-20.51416-17.43121-24.19019-31.27283-2.97192-11.19086-3.54077-22.68427-3.636-34.11667-.28516-34.31238-.17358-68.62888-.0227-102.9429.01807-4.10342-1.03955-5.55042-5.26709-5.35077-6.981.32974-13.9917-.0412-20.98315.14539-3.51709.0939-5.22534-.8403-5.08081-4.73538.241-6.48772.23438-12.996.01514-19.48489-.12207-3.61375,1.36646-4.61641,4.72534-4.54138,7.32568.16364,14.66138-.09042,21.98511.114,3.47778.09708,4.66406-1.0663,4.59082-4.57925-.19751-9.49075.07593-18.99184-.15552-28.48108-.07544-3.09885,1.13818-4.64209,3.81787-5.46252,9.66748-2.96,19.37842-5.78685,28.99072-8.91628,3.42407-1.11484,4.00171.06569,3.97852,3.14275-.09888,13.1586.07471,26.32013-.11938,39.47662-.05518,3.73268,1.12354,4.89233,4.84521,4.8446,14.48975-.18587,28.98462.02419,43.47437-.169,3.65893-.04878,5.02417.88872,4.83667,4.73323-.30762,6.3149-.28516,12.66466-.00733,18.98231.16895,3.83884-.87939,5.19589-4.96313,5.11734-13.48755-.25937-26.9834-.1337-40.47608-.08884-8.50562.02826-7.59058-1.05-7.616,7.84192-.05,17.32382-.01465,34.64786-.01465,51.9718Z" style="fill:#fff"/><path d="M1662.48559,329.08059c0-19.49872-.15344-38.99948.11145-58.4946.06348-4.67447-.89929-6.48828-5.93652-6.17554-7.30469.45355-14.66077.00491-21.99011.16531-2.95789.06476-4.18115-.76129-4.09094-3.92047q.29205-10.241-.00049-20.49519c-.09863-3.3566,1.26428-4.37317,4.40454-4.32494,7.66431.11774,15.33557-.10747,22.99622.09805,3.42224.09183,4.66419-.91641,4.58167-4.48395-.22-9.49431.03564-18.99912-.14343-28.49513-.05505-2.92691.766-4.634,3.63135-5.50972,9.351-2.85783,18.72119-5.67239,27.9707-8.83479,4.304-1.47151,4.60437.34688,4.56567,3.86505-.14124,12.83093.10962,25.66769-.15064,38.49489-.08276,4.0822,1.31006,5.03107,5.12769,4.98026,14.32983-.19083,28.66455.00977,42.99536-.13757,3.58948-.03688,5.15552.961,5.00061,4.79965-.24866,6.1563-.33594,12.34506.01563,18.49112.265,4.63306-1.68274,5.56546-5.86121,5.5033-14.1626-.21063-28.33215.0498-42.49463-.16193-3.74146-.05594-4.78113,1.00183-4.76636,4.75244.14441,36.66364-.069,73.32938.21973,109.99136.07727,9.8176,1.78943,19.58414,8.91394,27.24887a18.71464,18.71464,0,0,0,14.19629,6.29947c7.77332-.07715,15.65637,1.23911,23.26-1.55643,2.01355-.74036,2.83728.5798,3.02429,2.21307.891,7.77695-.00757,15.64157,1.16577,23.42639.32129,2.13281-1.96863,2.45691-3.476,2.92981a90.26082,90.26082,0,0,1-39.90735,3.20068c-15.45715-2.14124-27.45532-9.6532-35.136-23.25314-5.66443-10.02991-7.72913-21.288-7.985-32.6239-.4364-19.32184-.12024-38.66068-.12024-57.9924Z" style="fill:#fff"/><path d="M2536.6278,337.72165c.00024,32.16226-.06958,64.32486.0874,96.48636.02,4.07541-.9668,5.53452-5.23755,5.38629-8.98779-.312-17.99707-.22717-26.99121-.02417-3.73755.08432-4.86939-1.25214-4.86426-4.93323q.13367-96.98653.00537-193.97321c-.00513-3.77489,1.29834-4.92581,4.93994-4.85149,9.16162.187,18.33472.25221,27.4917-.0213,3.94141-.11775,4.65308,1.38419,4.63965,4.94431C2536.57751,273.06366,2536.6278,305.39273,2536.6278,337.72165Z" style="fill:#fff"/><path d="M2540.66809,178.84453c.96094,13.87439-9.67993,22.63532-22.67481,22.76157-13.06421.12694-22.50049-9.37054-22.56372-22.56256-.06494-13.50787,9.7561-23.44907,23.17017-23.23346C2530.51574,156.00162,2541.57922,164.61543,2540.66809,178.84453Z" style="fill:#fff"/><path d="M396.52423,299.09021a60.99532,60.99532,0,1,1-121.98346-1.25189c.1459-33.12112,28.03931-60.33589,61.63239-60.13295C369.46606,237.90649,396.66372,265.57,396.52423,299.09021Z" style="fill:#fff"/></g></g></svg>