<svg xmlns="http://www.w3.org/2000/svg" width="94" height="97" viewBox="0 0 94 97">
  <title>diseño portafolio web</title>
  <g id="Capa_1" data-name="Capa 1">
    <g>
      <polygon points="55.47 33.19 38.4 33.19 29.86 47.98 38.4 62.76 55.47 62.76 64.01 47.98 55.47 33.19" style="fill: #fff"/>
      <polygon points="83.25 48.92 66.18 48.92 57.65 63.7 66.18 78.49 83.25 78.49 91.79 63.7 83.25 48.92" style="fill: #fff;opacity: 0.9"/>
      <polygon points="55.47 66.18 38.4 66.18 29.86 80.96 38.4 95.75 55.47 95.75 64.01 80.96 55.47 66.18" style="fill: #fff;opacity: 0.8"/>
      <polygon points="27.4 50.04 10.33 50.04 1.79 64.82 10.33 79.61 27.4 79.61 35.94 64.82 27.4 50.04" style="fill: #fff;opacity: 0.9"/>
      <polygon points="27.4 18.45 10.33 18.45 1.79 33.24 10.33 48.02 27.4 48.02 35.94 33.24 27.4 18.45" style="fill: #fff;opacity: 0.9"/>
      <polygon points="83.25 16.35 66.18 16.35 57.65 31.14 66.18 45.92 83.25 45.92 91.79 31.14 83.25 16.35" style="fill: #fff;opacity: 0.4"/>
      <polygon points="55.47 1.61 38.4 1.61 29.86 16.4 38.4 31.18 55.47 31.18 64.01 16.4 55.47 1.61" style="fill: #fff;opacity: 0.7000000000000001"/>
    </g>
  </g>
</svg>
