<svg xmlns="http://www.w3.org/2000/svg" width="490.5999" height="436.89995" viewBox="0 0 490.5999 436.89995"><title>react_logo_white</title><g id="Capa_2" data-name="Capa 2"><g id="Layer_2" data-name="Layer 2"><path d="M490.5999,218.5c0-32.5-40.7-63.3-103.1-82.4,14.4-63.6,8-114.2-20.2-130.4a43.84338,43.84338,0,0,0-22.4-5.6V22.4a23.15632,23.15632,0,0,1,11.4,2.6c13.6,7.8,19.5,37.5,14.9,75.7-1.1,9.4-2.9,19.3-5.1,29.4a484.61939,484.61939,0,0,0-63.5-10.9,487.80226,487.80226,0,0,0-41.6-50c32.6-30.3,63.2-46.9,84-46.9V0h0c-27.5,0-63.5,19.6-99.9,53.6C208.7,19.8,172.7.4,145.2.4V22.7c20.7,0,51.4,16.5,84,46.6a472.31287,472.31287,0,0,0-41.3,49.9,466.97611,466.97611,0,0,0-63.6,11c-2.3-10-4-19.7-5.2-29-4.7-38.2,1.1-67.9,14.6-75.8,3-1.8,6.9-2.6,11.5-2.6V.5h0a44.58854,44.58854,0,0,0-22.6,5.6C94.5,22.3,88.2,72.8,102.7,136.2,40.5,155.4,0,186.1,0,218.5c0,32.5,40.7,63.3,103.1,82.4-14.4,63.6-8,114.2,20.2,130.4,6.5,3.8,14.1,5.6,22.5,5.6,27.5,0,63.5-19.6,99.9-53.6,36.4,33.8,72.4,53.2,99.9,53.2a44.588,44.588,0,0,0,22.6-5.6c28.1-16.2,34.4-66.7,19.9-130.1C450.0999,281.7,490.5999,250.9,490.5999,218.5Zm-130.2-66.7c-3.7,12.9-8.3,26.2-13.5,39.5-4.1-8-8.4-16-13.1-24-4.6-8-9.5-15.8-14.4-23.4C333.5999,146,347.29991,148.6,360.39989,151.8Zm-45.8,106.5c-7.8,13.5-15.8,26.3-24.1,38.2-14.9,1.3-30,2-45.2,2-15.1,0-30.2-.7-45-1.9q-12.45-17.85-24.2-38-11.4-19.65-20.8-39.8c6.2-13.4,13.2-26.8,20.7-39.9,7.8-13.5,15.8-26.3,24.1-38.2,14.9-1.3,30-2,45.2-2,15.1,0,30.2.7,45,1.9q12.45,17.85,24.2,38,11.4,19.65,20.8,39.8C328.99992,231.8,322.0999,245.2,314.5999,258.3Zm32.3-13c5.4,13.4,10,26.8,13.8,39.8-13.1,3.2-26.9,5.9-41.2,8,4.9-7.7,9.8-15.6,14.4-23.7C338.49992,261.4,342.79991,253.3,346.89989,245.3Zm-101.4,106.7a412.26254,412.26254,0,0,1-27.8-32c9,.4,18.2.7,27.5.7,9.4,0,18.7-.2,27.8-.7A390.32879,390.32879,0,0,1,245.49992,352Zm-74.4-58.9c-14.2-2.1-27.9-4.7-41-7.9,3.7-12.9,8.3-26.2,13.5-39.5,4.1,8,8.4,16,13.1,24S166.19991,285.5,171.0999,293.1Zm73.9-208.1a412.26539,412.26539,0,0,1,27.8,32c-9-.4-18.2-.7-27.5-.7-9.4,0-18.7.2-27.8.7A390.32543,390.32543,0,0,1,244.99992,85Zm-74,58.9c-4.9,7.7-9.8,15.6-14.4,23.7-4.6,8-8.9,16-13,24-5.4-13.4-10-26.8-13.8-39.8C142.89992,148.7,156.69991,146,170.99992,143.9Zm-90.5,125.2c-35.4-15.1-58.3-34.9-58.3-50.6s22.9-35.6,58.3-50.6c8.6-3.7,18-7,27.7-10.1a480.28686,480.28686,0,0,0,22.5,60.9,473.51243,473.51243,0,0,0-22.2,60.6C98.5999,276.2,89.19991,272.8,80.49992,269.1Zm53.8,142.9c-13.6-7.8-19.5-37.5-14.9-75.7,1.1-9.4,2.9-19.3,5.1-29.4a484.62281,484.62281,0,0,0,63.5,10.9,487.80391,487.80391,0,0,0,41.6,50c-32.6,30.3-63.2,46.9-84,46.9A23.865,23.865,0,0,1,134.29991,412Zm237.2-76.2c4.7,38.2-1.1,67.9-14.6,75.8-3,1.8-6.9,2.6-11.5,2.6-20.7,0-51.4-16.5-84-46.6a472.31443,472.31443,0,0,0,41.3-49.9,466.97481,466.97481,0,0,0,63.6-11A279.95859,279.95859,0,0,1,371.49992,335.8Zm38.5-66.7c-8.6,3.7-18,7-27.7,10.1a480.28685,480.28685,0,0,0-22.5-60.9,473.51705,473.51705,0,0,0,22.2-60.6c9.9,3.1,19.3,6.5,28.1,10.2,35.4,15.1,58.3,34.9,58.3,50.6C468.29991,234.2,445.39989,254.1,409.99992,269.1Z" style="fill:#fff"/><path d="M145.0999.4Z" style="fill:#fff"/><circle cx="245.19991" cy="218.49999" r="45.70001" style="fill:#fff"/><path d="M344.79991.1Z" style="fill:#fff"/></g></g></svg>